<mxfile host="app.diagrams.net" modified="2023-06-15T06:46:54.264Z" agent="Mozilla/5.0 (Macintosh; Intel Mac OS X 10_15_7) AppleWebKit/537.36 (KHTML, like Gecko) Chrome/113.0.0.0 Safari/537.36" etag="6Rl5zYQBi3A2nQPeEUpo" version="21.3.7" type="github">
  <diagram id="Nbi2OOFG4A7icGLgDpQb" name="第 1 页">
    <mxGraphModel dx="2261" dy="716" grid="1" gridSize="10" guides="1" tooltips="1" connect="1" arrows="1" fold="1" page="1" pageScale="1" pageWidth="827" pageHeight="1169" background="none" math="0" shadow="0">
      <root>
        <mxCell id="0" />
        <mxCell id="1" parent="0" />
        <mxCell id="kk27pRFW-uQP8ShshRhL-2" value="技术支撑" style="swimlane;childLayout=stackLayout;resizeParent=1;resizeParentMax=0;horizontal=1;startSize=40;horizontalStack=0;fillColor=#92D050;strokeColor=#82b366;fontSize=20;spacingTop=4;spacingBottom=4;swimlaneFillColor=none;arcSize=15;perimeterSpacing=0;gradientColor=none;spacing=2;" parent="1" vertex="1">
          <mxGeometry x="-460" y="50" width="690" height="1530" as="geometry">
            <mxRectangle x="220" y="250" width="100" height="30" as="alternateBounds" />
          </mxGeometry>
        </mxCell>
        <mxCell id="kk27pRFW-uQP8ShshRhL-3" value="准备阶段" style="swimlane;startSize=30;horizontal=0;fillColor=#92D050;fontSize=14;" parent="kk27pRFW-uQP8ShshRhL-2" vertex="1">
          <mxGeometry y="40" width="690" height="1490" as="geometry" />
        </mxCell>
        <mxCell id="OawIMf_CP--zUOg47wnV-12" value="业主" style="swimlane;startSize=30;fillColor=#92D050;fontSize=14;" parent="kk27pRFW-uQP8ShshRhL-3" vertex="1">
          <mxGeometry x="30" width="200" height="1490" as="geometry" />
        </mxCell>
        <mxCell id="_l7_EhExnu8Rcr2UOtGW-1" value="开始" style="shape=umlActor;verticalLabelPosition=bottom;verticalAlign=top;html=1;outlineConnect=0;" vertex="1" parent="OawIMf_CP--zUOg47wnV-12">
          <mxGeometry x="80" y="80" width="30" height="60" as="geometry" />
        </mxCell>
        <mxCell id="_l7_EhExnu8Rcr2UOtGW-30" value="结束" style="ellipse;whiteSpace=wrap;html=1;" vertex="1" parent="OawIMf_CP--zUOg47wnV-12">
          <mxGeometry x="35" y="1280" width="120" height="80" as="geometry" />
        </mxCell>
        <mxCell id="OawIMf_CP--zUOg47wnV-13" value="技术经理" style="swimlane;fillColor=#92D050;fontSize=14;startSize=30;" parent="kk27pRFW-uQP8ShshRhL-3" vertex="1">
          <mxGeometry x="430" width="260" height="1490" as="geometry" />
        </mxCell>
        <mxCell id="_l7_EhExnu8Rcr2UOtGW-11" value="" style="edgeStyle=orthogonalEdgeStyle;rounded=0;orthogonalLoop=1;jettySize=auto;html=1;" edge="1" parent="OawIMf_CP--zUOg47wnV-13" source="_l7_EhExnu8Rcr2UOtGW-8" target="_l7_EhExnu8Rcr2UOtGW-10">
          <mxGeometry relative="1" as="geometry" />
        </mxCell>
        <mxCell id="_l7_EhExnu8Rcr2UOtGW-8" value="指派技术经理" style="whiteSpace=wrap;html=1;fontSize=16;fillColor=#F5F5F5;fontColor=#000000;shadow=1;sketch=0;" vertex="1" parent="OawIMf_CP--zUOg47wnV-13">
          <mxGeometry x="44" y="391" width="120" height="60" as="geometry" />
        </mxCell>
        <mxCell id="_l7_EhExnu8Rcr2UOtGW-13" value="" style="edgeStyle=orthogonalEdgeStyle;rounded=0;orthogonalLoop=1;jettySize=auto;html=1;" edge="1" parent="OawIMf_CP--zUOg47wnV-13" source="_l7_EhExnu8Rcr2UOtGW-10" target="_l7_EhExnu8Rcr2UOtGW-12">
          <mxGeometry relative="1" as="geometry" />
        </mxCell>
        <mxCell id="_l7_EhExnu8Rcr2UOtGW-10" value="方案编写" style="whiteSpace=wrap;html=1;fontSize=16;fillColor=#F5F5F5;fontColor=#000000;shadow=1;sketch=0;" vertex="1" parent="OawIMf_CP--zUOg47wnV-13">
          <mxGeometry x="44" y="531" width="120" height="60" as="geometry" />
        </mxCell>
        <mxCell id="_l7_EhExnu8Rcr2UOtGW-15" value="" style="edgeStyle=orthogonalEdgeStyle;rounded=0;orthogonalLoop=1;jettySize=auto;html=1;" edge="1" parent="OawIMf_CP--zUOg47wnV-13" source="_l7_EhExnu8Rcr2UOtGW-12" target="_l7_EhExnu8Rcr2UOtGW-14">
          <mxGeometry relative="1" as="geometry" />
        </mxCell>
        <mxCell id="_l7_EhExnu8Rcr2UOtGW-12" value="技术方案" style="shape=document;whiteSpace=wrap;html=1;boundedLbl=1;fontSize=16;fillColor=#F5F5F5;fontColor=#000000;shadow=1;sketch=0;" vertex="1" parent="OawIMf_CP--zUOg47wnV-13">
          <mxGeometry x="44" y="661" width="120" height="80" as="geometry" />
        </mxCell>
        <mxCell id="_l7_EhExnu8Rcr2UOtGW-19" value="" style="edgeStyle=orthogonalEdgeStyle;rounded=0;orthogonalLoop=1;jettySize=auto;html=1;" edge="1" parent="OawIMf_CP--zUOg47wnV-13" source="_l7_EhExnu8Rcr2UOtGW-14" target="_l7_EhExnu8Rcr2UOtGW-18">
          <mxGeometry relative="1" as="geometry" />
        </mxCell>
        <mxCell id="_l7_EhExnu8Rcr2UOtGW-20" value="通过" style="edgeLabel;html=1;align=center;verticalAlign=middle;resizable=0;points=[];" vertex="1" connectable="0" parent="_l7_EhExnu8Rcr2UOtGW-19">
          <mxGeometry x="-0.125" relative="1" as="geometry">
            <mxPoint as="offset" />
          </mxGeometry>
        </mxCell>
        <mxCell id="_l7_EhExnu8Rcr2UOtGW-23" value="不通过" style="edgeStyle=orthogonalEdgeStyle;rounded=0;orthogonalLoop=1;jettySize=auto;html=1;exitX=1;exitY=0.5;exitDx=0;exitDy=0;entryX=1;entryY=0.5;entryDx=0;entryDy=0;" edge="1" parent="OawIMf_CP--zUOg47wnV-13" source="_l7_EhExnu8Rcr2UOtGW-14" target="_l7_EhExnu8Rcr2UOtGW-10">
          <mxGeometry relative="1" as="geometry">
            <Array as="points">
              <mxPoint x="210" y="861" />
              <mxPoint x="210" y="561" />
            </Array>
          </mxGeometry>
        </mxCell>
        <mxCell id="_l7_EhExnu8Rcr2UOtGW-14" value="负责人复核" style="rhombus;whiteSpace=wrap;html=1;fontSize=16;fillColor=#F5F5F5;fontColor=#000000;shadow=1;sketch=0;" vertex="1" parent="OawIMf_CP--zUOg47wnV-13">
          <mxGeometry x="64" y="821" width="80" height="80" as="geometry" />
        </mxCell>
        <mxCell id="_l7_EhExnu8Rcr2UOtGW-18" value="技术方案" style="shape=document;whiteSpace=wrap;html=1;boundedLbl=1;fontSize=16;fillColor=#F5F5F5;fontColor=#000000;shadow=1;sketch=0;" vertex="1" parent="OawIMf_CP--zUOg47wnV-13">
          <mxGeometry x="44" y="981" width="120" height="80" as="geometry" />
        </mxCell>
        <mxCell id="OawIMf_CP--zUOg47wnV-14" value="售前" style="swimlane;startSize=30;fillColor=#92D050;fontSize=14;fontColor=#000000;" parent="kk27pRFW-uQP8ShshRhL-3" vertex="1">
          <mxGeometry x="230" width="200" height="1490" as="geometry" />
        </mxCell>
        <mxCell id="_l7_EhExnu8Rcr2UOtGW-5" value="" style="edgeStyle=orthogonalEdgeStyle;rounded=0;orthogonalLoop=1;jettySize=auto;html=1;" edge="1" parent="OawIMf_CP--zUOg47wnV-14" source="_l7_EhExnu8Rcr2UOtGW-2" target="_l7_EhExnu8Rcr2UOtGW-4">
          <mxGeometry relative="1" as="geometry" />
        </mxCell>
        <mxCell id="_l7_EhExnu8Rcr2UOtGW-2" value="&lt;font face=&quot;Microsoft YaHei-2&quot; data-font-src=&quot;https://fonts.cdnfonts.com/s/62899/chinese.msyh.woff&quot; style=&quot;font-size: 16px;&quot; color=&quot;#333333&quot;&gt;相关要求材料&lt;/font&gt;" style="shape=document;whiteSpace=wrap;html=1;boundedLbl=1;shadow=1;sketch=0;fontSize=12;fontColor=#FFC000;fillColor=#F5F5F5;" vertex="1" parent="OawIMf_CP--zUOg47wnV-14">
          <mxGeometry x="40" y="81" width="120" height="80" as="geometry" />
        </mxCell>
        <mxCell id="_l7_EhExnu8Rcr2UOtGW-7" value="" style="edgeStyle=orthogonalEdgeStyle;rounded=0;orthogonalLoop=1;jettySize=auto;html=1;" edge="1" parent="OawIMf_CP--zUOg47wnV-14" source="_l7_EhExnu8Rcr2UOtGW-4" target="_l7_EhExnu8Rcr2UOtGW-6">
          <mxGeometry relative="1" as="geometry" />
        </mxCell>
        <mxCell id="_l7_EhExnu8Rcr2UOtGW-4" value="整理材料" style="whiteSpace=wrap;html=1;fillColor=#F5F5F5;fontColor=#000000;shadow=1;sketch=0;fontSize=16;" vertex="1" parent="OawIMf_CP--zUOg47wnV-14">
          <mxGeometry x="40" y="251" width="120" height="60" as="geometry" />
        </mxCell>
        <mxCell id="_l7_EhExnu8Rcr2UOtGW-6" value="大纲材料&amp;amp;要求" style="shape=document;whiteSpace=wrap;html=1;boundedLbl=1;fontSize=16;fillColor=#F5F5F5;fontColor=#000000;shadow=1;sketch=0;" vertex="1" parent="OawIMf_CP--zUOg47wnV-14">
          <mxGeometry x="40" y="381" width="120" height="80" as="geometry" />
        </mxCell>
        <mxCell id="_l7_EhExnu8Rcr2UOtGW-24" style="edgeStyle=orthogonalEdgeStyle;rounded=0;orthogonalLoop=1;jettySize=auto;html=1;exitX=0.5;exitY=0;exitDx=0;exitDy=0;entryX=0.483;entryY=0.925;entryDx=0;entryDy=0;entryPerimeter=0;" edge="1" parent="OawIMf_CP--zUOg47wnV-14" source="_l7_EhExnu8Rcr2UOtGW-21" target="_l7_EhExnu8Rcr2UOtGW-6">
          <mxGeometry relative="1" as="geometry" />
        </mxCell>
        <mxCell id="_l7_EhExnu8Rcr2UOtGW-25" value="不满足" style="edgeLabel;html=1;align=center;verticalAlign=middle;resizable=0;points=[];" vertex="1" connectable="0" parent="_l7_EhExnu8Rcr2UOtGW-24">
          <mxGeometry x="-0.8409" relative="1" as="geometry">
            <mxPoint as="offset" />
          </mxGeometry>
        </mxCell>
        <mxCell id="_l7_EhExnu8Rcr2UOtGW-27" value="" style="edgeStyle=orthogonalEdgeStyle;rounded=0;orthogonalLoop=1;jettySize=auto;html=1;" edge="1" parent="OawIMf_CP--zUOg47wnV-14" source="_l7_EhExnu8Rcr2UOtGW-21" target="_l7_EhExnu8Rcr2UOtGW-26">
          <mxGeometry relative="1" as="geometry" />
        </mxCell>
        <mxCell id="_l7_EhExnu8Rcr2UOtGW-21" value="是否满足" style="rhombus;whiteSpace=wrap;html=1;fontSize=16;fillColor=#F5F5F5;fontColor=#000000;shadow=1;sketch=0;" vertex="1" parent="OawIMf_CP--zUOg47wnV-14">
          <mxGeometry x="58" y="981" width="80" height="80" as="geometry" />
        </mxCell>
        <mxCell id="_l7_EhExnu8Rcr2UOtGW-29" value="" style="edgeStyle=orthogonalEdgeStyle;rounded=0;orthogonalLoop=1;jettySize=auto;html=1;" edge="1" parent="OawIMf_CP--zUOg47wnV-14" source="_l7_EhExnu8Rcr2UOtGW-26" target="_l7_EhExnu8Rcr2UOtGW-28">
          <mxGeometry relative="1" as="geometry" />
        </mxCell>
        <mxCell id="_l7_EhExnu8Rcr2UOtGW-26" value="整合技术方案" style="whiteSpace=wrap;html=1;fontSize=16;fillColor=#F5F5F5;fontColor=#000000;shadow=1;sketch=0;" vertex="1" parent="OawIMf_CP--zUOg47wnV-14">
          <mxGeometry x="38" y="1151" width="120" height="60" as="geometry" />
        </mxCell>
        <mxCell id="_l7_EhExnu8Rcr2UOtGW-28" value="可研方案/投标方案" style="shape=document;whiteSpace=wrap;html=1;boundedLbl=1;fontSize=16;fillColor=#F5F5F5;fontColor=#000000;shadow=1;sketch=0;" vertex="1" parent="OawIMf_CP--zUOg47wnV-14">
          <mxGeometry x="38" y="1281" width="120" height="80" as="geometry" />
        </mxCell>
        <mxCell id="_l7_EhExnu8Rcr2UOtGW-3" style="edgeStyle=orthogonalEdgeStyle;rounded=0;orthogonalLoop=1;jettySize=auto;html=1;exitX=0.5;exitY=0.5;exitDx=0;exitDy=0;exitPerimeter=0;entryX=-0.033;entryY=0.363;entryDx=0;entryDy=0;entryPerimeter=0;" edge="1" parent="kk27pRFW-uQP8ShshRhL-3" source="_l7_EhExnu8Rcr2UOtGW-1" target="_l7_EhExnu8Rcr2UOtGW-2">
          <mxGeometry relative="1" as="geometry" />
        </mxCell>
        <mxCell id="_l7_EhExnu8Rcr2UOtGW-9" value="" style="edgeStyle=orthogonalEdgeStyle;rounded=0;orthogonalLoop=1;jettySize=auto;html=1;" edge="1" parent="kk27pRFW-uQP8ShshRhL-3" source="_l7_EhExnu8Rcr2UOtGW-6" target="_l7_EhExnu8Rcr2UOtGW-8">
          <mxGeometry relative="1" as="geometry" />
        </mxCell>
        <mxCell id="_l7_EhExnu8Rcr2UOtGW-22" value="邮件" style="edgeStyle=orthogonalEdgeStyle;rounded=0;orthogonalLoop=1;jettySize=auto;html=1;" edge="1" parent="kk27pRFW-uQP8ShshRhL-3" source="_l7_EhExnu8Rcr2UOtGW-18" target="_l7_EhExnu8Rcr2UOtGW-21">
          <mxGeometry relative="1" as="geometry" />
        </mxCell>
        <mxCell id="_l7_EhExnu8Rcr2UOtGW-31" value="邮件" style="edgeStyle=orthogonalEdgeStyle;rounded=0;orthogonalLoop=1;jettySize=auto;html=1;exitX=0;exitY=0.5;exitDx=0;exitDy=0;entryX=1;entryY=0.5;entryDx=0;entryDy=0;" edge="1" parent="kk27pRFW-uQP8ShshRhL-3" source="_l7_EhExnu8Rcr2UOtGW-28" target="_l7_EhExnu8Rcr2UOtGW-30">
          <mxGeometry relative="1" as="geometry" />
        </mxCell>
      </root>
    </mxGraphModel>
  </diagram>
</mxfile>
